<?xml version="1.0" standalone="no"?>
<svg
  width="600"
  height="600"
  viewBox="0 0 600 600"
  xmlns="http://www.w3.org/2000/svg"
>
  <g transform="translate(300,300)">
    <path d="M142.8,-208.4C178.6,-199.2,196.6,-148.6,216.2,-100.3C235.8,-52,257,-6,255.5,40C253.9,86,229.8,132.1,192,154.7C154.2,177.3,102.9,176.4,55.8,190.6C8.6,204.7,-34.3,233.8,-77.3,234.3C-120.2,234.9,-163.3,206.8,-179.3,167.2C-195.3,127.5,-184.3,76.2,-188.7,28.7C-193.1,-18.8,-213,-62.6,-210.9,-108.4C-208.8,-154.2,-184.7,-202,-145.9,-209.8C-107,-217.6,-53.5,-185.3,0,-185.3C53.5,-185.3,107,-217.6,142.8,-208.4Z" fill="#eb144c" />
  </g>
</svg>
  